<?xml version='1.0' encoding='iso-8859-1'?>
<svg version="1.1" xmlns="http://www.w3.org/2000/svg" viewBox="0 0 256.403 256.403" fill="white" xmlns:xlink="http://www.w3.org/1999/xlink" enable-background="new 0 0 256.403 256.403">
  <path d="m253.383,65.528c-2.623-3.276-6.535-5.155-10.732-5.155h-169.106l-18.005-32.778c-4.437-8.55-13.195-13.644-23.497-13.644h-32.043v30h30.297l17.837,32.469 26.135,113.117c0.208,1.413 0.639,2.745 1.238,3.977-4.726,5.2-7.61,12.103-7.61,19.667 0,16.14 13.13,29.27 29.27,29.27s29.271-13.13 29.271-29.27c0-4.236-0.912-8.261-2.538-11.899h50.234c-1.626,3.638-2.538,7.663-2.538,11.899 0,16.14 13.131,29.27 29.271,29.27s29.27-13.13 29.27-29.27c0-9.704-4.75-18.315-12.043-23.644l37.832-111.902 .143-.508c0.915-4.094-0.062-8.322-2.686-11.599z"/>
</svg>
