<svg id="visual" viewBox="0 0 900 600" width="900" height="600" xmlns="http://www.w3.org/2000/svg" xmlns:xlink="http://www.w3.org/1999/xlink" version="1.1"><rect x="0" y="0" width="900" height="600" fill="#fff"></rect><path d="M0 484L7.8 479.8C15.7 475.7 31.3 467.3 47.2 473.5C63 479.7 79 500.3 94.8 510.8C110.7 521.3 126.3 521.7 142 514.7C157.7 507.7 173.3 493.3 189.2 495.7C205 498 221 517 236.8 520C252.7 523 268.3 510 284.2 498.3C300 486.7 316 476.3 331.8 483.7C347.7 491 363.3 516 379 518C394.7 520 410.3 499 426.2 485.7C442 472.3 458 466.7 473.8 463.7C489.7 460.7 505.3 460.3 521 470C536.7 479.7 552.3 499.3 568.2 513.8C584 528.3 600 537.7 615.8 532.3C631.7 527 647.3 507 663.2 505C679 503 695 519 710.8 515.5C726.7 512 742.3 489 758 477.8C773.7 466.7 789.3 467.3 805.2 467.7C821 468 837 468 852.8 477.5C868.7 487 884.3 506 892.2 515.5L900 525L900 0L892.2 0C884.3 0 868.7 0 852.8 0C837 0 821 0 805.2 0C789.3 0 773.7 0 758 0C742.3 0 726.7 0 710.8 0C695 0 679 0 663.2 0C647.3 0 631.7 0 615.8 0C600 0 584 0 568.2 0C552.3 0 536.7 0 521 0C505.3 0 489.7 0 473.8 0C458 0 442 0 426.2 0C410.3 0 394.7 0 379 0C363.3 0 347.7 0 331.8 0C316 0 300 0 284.2 0C268.3 0 252.7 0 236.8 0C221 0 205 0 189.2 0C173.3 0 157.7 0 142 0C126.3 0 110.7 0 94.8 0C79 0 63 0 47.2 0C31.3 0 15.7 0 7.8 0L0 0Z" fill="#d100d1"></path><path d="M0 365L7.8 370.8C15.7 376.7 31.3 388.3 47.2 393.5C63 398.7 79 397.3 94.8 403.2C110.7 409 126.3 422 142 414.5C157.7 407 173.3 379 189.2 376C205 373 221 395 236.8 409.5C252.7 424 268.3 431 284.2 421.2C300 411.3 316 384.7 331.8 381.7C347.7 378.7 363.3 399.3 379 402.7C394.7 406 410.3 392 426.2 380.8C442 369.7 458 361.3 473.8 357.2C489.7 353 505.3 353 521 356.2C536.7 359.3 552.3 365.7 568.2 368C584 370.3 600 368.7 615.8 372.8C631.7 377 647.3 387 663.2 396C679 405 695 413 710.8 412.5C726.7 412 742.3 403 758 394.2C773.7 385.3 789.3 376.7 805.2 375C821 373.3 837 378.7 852.8 377.3C868.7 376 884.3 368 892.2 364L900 360L900 0L892.2 0C884.3 0 868.7 0 852.8 0C837 0 821 0 805.2 0C789.3 0 773.7 0 758 0C742.3 0 726.7 0 710.8 0C695 0 679 0 663.2 0C647.3 0 631.7 0 615.8 0C600 0 584 0 568.2 0C552.3 0 536.7 0 521 0C505.3 0 489.7 0 473.8 0C458 0 442 0 426.2 0C410.3 0 394.7 0 379 0C363.3 0 347.7 0 331.8 0C316 0 300 0 284.2 0C268.3 0 252.7 0 236.8 0C221 0 205 0 189.2 0C173.3 0 157.7 0 142 0C126.3 0 110.7 0 94.8 0C79 0 63 0 47.2 0C31.3 0 15.7 0 7.8 0L0 0Z" fill="#d700b1"></path><path d="M0 344L7.8 342.8C15.7 341.7 31.3 339.3 47.2 339.2C63 339 79 341 94.8 342.8C110.7 344.7 126.3 346.3 142 336.8C157.7 327.3 173.3 306.7 189.2 293.5C205 280.3 221 274.7 236.8 282C252.7 289.3 268.3 309.7 284.2 314.8C300 320 316 310 331.8 306.5C347.7 303 363.3 306 379 308.5C394.7 311 410.3 313 426.2 310.7C442 308.3 458 301.7 473.8 297C489.7 292.3 505.3 289.7 521 290.2C536.7 290.7 552.3 294.3 568.2 300.5C584 306.7 600 315.3 615.8 315.7C631.7 316 647.3 308 663.2 301.2C679 294.3 695 288.7 710.8 296.3C726.7 304 742.3 325 758 331.2C773.7 337.3 789.3 328.7 805.2 328.7C821 328.7 837 337.3 852.8 329.3C868.7 321.3 884.3 296.7 892.2 284.3L900 272L900 0L892.2 0C884.3 0 868.7 0 852.8 0C837 0 821 0 805.2 0C789.3 0 773.7 0 758 0C742.3 0 726.7 0 710.8 0C695 0 679 0 663.2 0C647.3 0 631.7 0 615.8 0C600 0 584 0 568.2 0C552.3 0 536.7 0 521 0C505.3 0 489.7 0 473.8 0C458 0 442 0 426.2 0C410.3 0 394.7 0 379 0C363.3 0 347.7 0 331.8 0C316 0 300 0 284.2 0C268.3 0 252.7 0 236.8 0C221 0 205 0 189.2 0C173.3 0 157.7 0 142 0C126.3 0 110.7 0 94.8 0C79 0 63 0 47.2 0C31.3 0 15.7 0 7.8 0L0 0Z" fill="#d60095"></path><path d="M0 162L7.8 165.3C15.7 168.7 31.3 175.3 47.2 173.3C63 171.3 79 160.7 94.8 170.3C110.7 180 126.3 210 142 214.8C157.7 219.7 173.3 199.3 189.2 200.8C205 202.3 221 225.7 236.8 232.7C252.7 239.7 268.3 230.3 284.2 229.7C300 229 316 237 331.8 231.8C347.7 226.7 363.3 208.3 379 193.7C394.7 179 410.3 168 426.2 169.2C442 170.3 458 183.7 473.8 184C489.7 184.3 505.3 171.7 521 169.3C536.7 167 552.3 175 568.2 186.8C584 198.7 600 214.3 615.8 216.7C631.7 219 647.3 208 663.2 208.7C679 209.3 695 221.7 710.8 228.2C726.7 234.7 742.3 235.3 758 223.3C773.7 211.3 789.3 186.7 805.2 173.2C821 159.7 837 157.3 852.8 159.5C868.7 161.7 884.3 168.3 892.2 171.7L900 175L900 0L892.2 0C884.3 0 868.7 0 852.8 0C837 0 821 0 805.2 0C789.3 0 773.7 0 758 0C742.3 0 726.7 0 710.8 0C695 0 679 0 663.2 0C647.3 0 631.7 0 615.8 0C600 0 584 0 568.2 0C552.3 0 536.7 0 521 0C505.3 0 489.7 0 473.8 0C458 0 442 0 426.2 0C410.3 0 394.7 0 379 0C363.3 0 347.7 0 331.8 0C316 0 300 0 284.2 0C268.3 0 252.7 0 236.8 0C221 0 205 0 189.2 0C173.3 0 157.7 0 142 0C126.3 0 110.7 0 94.8 0C79 0 63 0 47.2 0C31.3 0 15.7 0 7.8 0L0 0Z" fill="#d0127d"></path><path d="M0 53L7.8 53C15.7 53 31.3 53 47.2 62.3C63 71.7 79 90.3 94.8 91.8C110.7 93.3 126.3 77.7 142 74.2C157.7 70.7 173.3 79.3 189.2 79.2C205 79 221 70 236.8 74.5C252.7 79 268.3 97 284.2 102.8C300 108.7 316 102.3 331.8 100.5C347.7 98.7 363.3 101.3 379 103.2C394.7 105 410.3 106 426.2 103.3C442 100.7 458 94.3 473.8 91C489.7 87.7 505.3 87.3 521 92.8C536.7 98.3 552.3 109.7 568.2 118.8C584 128 600 135 615.8 127.7C631.7 120.3 647.3 98.7 663.2 94.3C679 90 695 103 710.8 102.5C726.7 102 742.3 88 758 81.7C773.7 75.3 789.3 76.7 805.2 84.2C821 91.7 837 105.3 852.8 102.7C868.7 100 884.3 81 892.2 71.5L900 62L900 0L892.2 0C884.3 0 868.7 0 852.8 0C837 0 821 0 805.2 0C789.3 0 773.7 0 758 0C742.3 0 726.7 0 710.8 0C695 0 679 0 663.2 0C647.3 0 631.7 0 615.8 0C600 0 584 0 568.2 0C552.3 0 536.7 0 521 0C505.3 0 489.7 0 473.8 0C458 0 442 0 426.2 0C410.3 0 394.7 0 379 0C363.3 0 347.7 0 331.8 0C316 0 300 0 284.2 0C268.3 0 252.7 0 236.8 0C221 0 205 0 189.2 0C173.3 0 157.7 0 142 0C126.3 0 110.7 0 94.8 0C79 0 63 0 47.2 0C31.3 0 15.7 0 7.8 0L0 0Z" fill="#c62368"></path></svg>