<svg id="visual" viewBox="0 0 900 600" width="900" height="600" xmlns="http://www.w3.org/2000/svg" xmlns:xlink="http://www.w3.org/1999/xlink" version="1.1"><rect x="0" y="0" width="900" height="600" fill="#fff"></rect><path d="M480 0L470.2 14.3C460.3 28.7 440.7 57.3 429.7 85.8C418.7 114.3 416.3 142.7 427.8 171.2C439.3 199.7 464.7 228.3 466.5 257C468.3 285.7 446.7 314.3 433.3 343C420 371.7 415 400.3 423.3 428.8C431.7 457.3 453.3 485.7 463.2 514.2C473 542.7 471 571.3 470 585.7L469 600L0 600L0 585.7C0 571.3 0 542.7 0 514.2C0 485.7 0 457.3 0 428.8C0 400.3 0 371.7 0 343C0 314.3 0 285.7 0 257C0 228.3 0 199.7 0 171.2C0 142.7 0 114.3 0 85.8C0 57.3 0 28.7 0 14.3L0 0Z" fill="#d100d1" stroke-linecap="round" stroke-linejoin="miter"></path></svg>