<?xml version="1.0" encoding="iso-8859-1"?>
<!-- Generator: Adobe Illustrator 18.1.1, SVG Export Plug-In . SVG Version: 6.00 Build 0)  -->
<svg version="1.1" id="Capa_1" xmlns="http://www.w3.org/2000/svg" xmlns:xlink="http://www.w3.org/1999/xlink" x="0px" y="0px"
	 viewBox="0 0 422.466 422.466" style="enable-background:new 0 0 422.466 422.466;" xml:space="preserve">
<g>
	<path style="fill:#fff;" d="M363.916,237.72c-4.495,0-8.129,3.642-8.129,8.129c0,4.487,3.633,8.129,8.129,8.129h26.247
		c4.495,0,8.129-3.642,8.129-8.129v-50.625c0-4.487-3.633-8.129-8.129-8.129h-26.247c-4.495,0-8.129,3.642-8.129,8.129
		c0,4.487,3.633,8.129,8.129,8.129h18.119v34.368H363.916z"/>
	<path style="fill:#fff;" d="M398.292,99.9c0-4.487-3.633-8.129-8.129-8.129h-26.247c-4.495,0-8.129,3.642-8.129,8.129
		c0,4.487,3.633,8.129,8.129,8.129h18.119v34.351h-18.119c-4.495,0-8.129,3.642-8.129,8.129c0,4.487,3.633,8.129,8.129,8.129h26.247
		c4.495,0,8.129-3.642,8.129-8.129V99.9z"/>
	<path style="fill:#fff;" d="M398.292,8.543c0-4.487-3.633-8.129-8.129-8.129h-26.247c-4.495,0-8.129,3.642-8.129,8.129
		s3.633,8.129,8.129,8.129h18.119v34.351h-18.119c-4.495,0-8.129,3.642-8.129,8.129s3.633,8.129,8.129,8.129h26.247
		c4.495,0,8.129-3.642,8.129-8.129V8.543z"/>
	<path style="fill:#fff;" d="M48.568,422.466h287.443c4.495,0,8.129-3.642,8.129-8.129V8.129c0-4.487-3.633-8.129-8.129-8.129
		H48.568C35.124,0,24.183,9.754,24.183,21.736s9.332,21.736,20.793,21.736H57.64c4.495,0,8.129-3.642,8.129-8.129
		s-3.633-8.129-8.129-8.129H44.975c-2.504,0-4.536-2.455-4.536-5.479c0-2.593,3.341-5.479,8.129-5.479h279.314v389.96H48.568
		c-4.788,0-8.129-2.886-8.129-5.487c0-3.024,2.601-5.487,5.804-5.487h13.924c4.495,0,8.129-3.642,8.129-8.129
		c0-4.487-3.633-8.129-8.129-8.129H46.243c-12.16,0-22.061,9.754-22.061,21.744C24.183,412.72,35.115,422.466,48.568,422.466z"/>
	<path style="fill:#fff;" d="M24.183,327.834c0,13.445,9.901,24.386,22.061,24.386h13.924c4.495,0,8.129-3.642,8.129-8.129
		c0-4.487-3.633-8.129-8.129-8.129H46.243c-3.146,0-5.804-3.723-5.804-8.129v-1.642c0-4.788,2.886-8.129,5.487-8.129h13.615
		c4.495,0,8.129-3.642,8.129-8.129c0-4.487-3.633-8.129-8.129-8.129H45.926c-11.99,0-21.744,10.941-21.744,24.386
		C24.183,326.192,24.183,327.834,24.183,327.834z"/>
	<path style="fill:#fff;" d="M24.183,250.645c0,13.445,9.754,24.386,21.744,24.386h13.615c4.495,0,8.129-3.642,8.129-8.129
		c0-4.487-3.633-8.129-8.129-8.129H45.926c-2.593,0-5.487-3.341-5.487-8.129v-1.658c0-4.65,2.731-8.129,5.17-8.129h13.298
		c4.495,0,8.129-3.642,8.129-8.129c0-4.487-3.633-8.129-8.129-8.129H45.609c-11.811,0-21.427,10.941-21.427,24.386
		C24.183,248.986,24.183,250.645,24.183,250.645z"/>
	<path style="fill:#fff;" d="M24.183,173.456c0,13.445,9.616,24.386,21.427,24.386h13.298c4.495,0,8.129-3.642,8.129-8.129
		c0-4.487-3.633-8.129-8.129-8.129H45.609c-2.439,0-5.17-3.479-5.17-8.129v-1.65c0-4.65,2.56-8.129,4.853-8.129h12.989
		c4.495,0,8.129-3.642,8.129-8.129s-3.633-8.129-8.129-8.129H45.284c-11.64,0-21.11,10.941-21.11,24.386v1.65H24.183z"/>
	<path style="fill:#fff;" d="M44.967,86.488h12.664c4.495,0,8.129-3.642,8.129-8.129c0-4.487-3.633-8.129-8.129-8.129H44.967
		c-11.461,0-20.793,10.941-20.793,24.386v1.65c0,13.445,9.47,24.386,21.11,24.386h12.989c4.495,0,8.129-3.642,8.129-8.129
		c0-4.487-3.633-8.129-8.129-8.129H45.284c-2.284,0-4.853-3.479-4.853-8.129v-1.65C40.44,89.65,43.122,86.488,44.967,86.488z"/>
	<path style="fill:#fff;" d="M256.717,130.082c4.495,0,8.129-3.642,8.129-8.129V68.922c0-4.487-3.633-8.129-8.129-8.129H125.115
		c-4.495,0-8.129,3.642-8.129,8.129v53.031c0,4.487,3.633,8.129,8.129,8.129H256.717z M133.244,77.059h115.353v36.774H133.244
		V77.059z"/>
</g>
<g>
</g>
<g>
</g>
<g>
</g>
<g>
</g>
<g>
</g>
<g>
</g>
<g>
</g>
<g>
</g>
<g>
</g>
<g>
</g>
<g>
</g>
<g>
</g>
<g>
</g>
<g>
</g>
<g>
</g>
</svg>
